<?xml version="1.0" standalone="no"?>
<!DOCTYPE svg PUBLIC "-//W3C//DTD SVG 20010904//EN"
 "http://www.w3.org/TR/2001/REC-SVG-20010904/DTD/svg10.dtd">
<svg version="1.0" xmlns="http://www.w3.org/2000/svg"
 width="1500.000000pt" height="1500.000000pt" viewBox="0 0 1500.000000 1500.000000"
 preserveAspectRatio="xMidYMid meet">
<metadata>
Created by potrace 1.14, written by Peter Selinger 2001-2017
</metadata>
<g transform="translate(0.000000,1500.000000) scale(0.100000,-0.100000)"
fill="#000000" stroke="none">
<path d="M0 7500 l0 -7500 7500 0 7500 0 0 7500 0 7500 -7500 0 -7500 0 0
-7500z m10490 4070 l0 -560 -170 0 -170 0 0 390 0 390 -410 0 -410 0 0 168 c0
93 2 171 4 173 2 2 263 3 580 1 l576 -2 0 -560z m-4842 393 l-3 -168 -407 -3
-408 -2 0 -405 0 -405 -170 0 -170 0 0 575 0 575 580 0 580 0 -2 -167z m2050
-794 c768 -84 1410 -642 1596 -1386 49 -193 56 -282 56 -686 l0 -376 -22 -15
c-30 -21 -54 -20 -78 4 -19 19 -20 33 -20 388 0 478 -18 604 -121 867 -86 221
-206 402 -389 585 -142 143 -263 233 -430 319 -488 252 -1089 257 -1575 14
-513 -257 -870 -750 -950 -1313 -11 -77 -15 -200 -15 -462 0 -204 -4 -368 -10
-382 -12 -33 -52 -43 -85 -22 l-25 16 0 375 c0 405 8 510 56 692 192 741 827
1296 1579 1381 115 13 320 14 433 1z m107 -209 c565 -114 1033 -520 1209
-1050 67 -204 72 -244 107 -967 12 -244 18 -454 15 -468 -12 -46 -74 -53 -101
-11 -10 15 -20 163 -39 556 -15 294 -31 567 -37 605 -70 488 -421 931 -899
1134 -313 133 -691 146 -1026 35 -529 -175 -921 -638 -1010 -1194 -10 -62 -18
-214 -23 -435 -9 -370 -9 -373 -76 -505 -35 -69 -104 -158 -128 -166 -31 -10
-67 5 -78 33 -8 22 -5 32 18 65 133 188 137 201 140 508 4 397 23 569 89 768
158 483 529 863 1005 1030 90 32 238 66 349 82 104 14 370 4 485 -20z m-215
-185 c388 -55 720 -225 941 -480 358 -414 464 -1038 319 -1880 -35 -202 -84
-390 -146 -563 -52 -145 -186 -431 -211 -449 -37 -28 -93 -2 -93 43 0 12 27
76 59 141 216 434 333 964 332 1513 0 463 -98 794 -317 1076 -192 247 -493
413 -859 474 -145 25 -226 22 -375 -10 -116 -25 -199 -54 -303 -106 -126 -63
-198 -115 -304 -217 -141 -137 -244 -298 -311 -489 -51 -144 -62 -227 -72
-543 -17 -561 -19 -574 -81 -697 -47 -93 -163 -222 -270 -301 -65 -48 -119
-35 -119 28 0 28 8 39 54 74 122 92 214 206 257 320 19 51 22 85 30 401 9 359
19 497 44 609 132 574 601 994 1185 1060 110 12 125 12 240 -4z m-97 -267 c27
-21 32 -63 9 -86 -14 -14 -39 -20 -108 -25 -249 -18 -457 -116 -626 -296 -147
-156 -249 -346 -299 -556 -8 -32 -13 -161 -14 -360 -1 -280 -3 -320 -24 -414
-56 -262 -175 -455 -389 -632 -100 -83 -134 -96 -166 -63 -17 16 -21 52 -8 69
4 6 41 38 82 72 208 168 313 340 366 593 14 69 18 143 19 390 1 240 5 320 18
375 69 301 270 604 507 765 86 58 209 114 307 140 143 37 296 50 326 28z m352
-28 c228 -79 293 -131 238 -192 -23 -26 -50 -23 -123 16 -36 19 -112 51 -169
70 -58 20 -111 42 -118 48 -30 25 -3 98 37 98 10 0 71 -18 135 -40z m-123
-195 c353 -74 637 -431 730 -920 20 -105 23 -151 23 -375 0 -261 -5 -314 -50
-591 -47 -279 -122 -520 -237 -761 -70 -146 -87 -167 -128 -159 -23 4 -50 32
-50 52 0 10 22 63 49 116 150 300 220 549 283 1003 20 146 17 561 -5 677 -38
202 -106 378 -197 514 -56 82 -190 215 -261 257 -96 56 -162 75 -289 80 -143
5 -253 -18 -387 -83 -220 -107 -384 -296 -462 -531 -29 -88 -36 -132 -67 -438
-48 -491 -53 -520 -86 -615 -75 -214 -191 -379 -377 -538 -78 -67 -109 -77
-143 -46 -29 26 -22 59 19 95 211 185 312 321 383 517 33 89 42 154 85 606 29
306 41 376 84 494 119 325 404 571 748 645 90 19 244 20 335 1z m629 -103
c172 -175 283 -406 341 -709 20 -105 23 -148 23 -393 0 -295 -14 -434 -71
-702 -49 -232 -137 -481 -237 -673 -49 -93 -54 -100 -85 -103 -78 -8 -80 41
-8 185 136 272 207 525 268 948 21 143 17 597 -5 710 -55 277 -161 502 -311
657 -82 85 -86 96 -48 141 28 32 54 20 133 -61z m-661 -129 c161 -44 317 -183
418 -373 82 -154 132 -365 132 -559 0 -78 -3 -94 -20 -111 -24 -24 -48 -25
-76 -5 -19 13 -22 27 -27 157 -7 171 -36 299 -98 428 -96 202 -241 331 -405
361 -237 44 -558 -197 -660 -496 -27 -78 -28 -89 -35 -385 -5 -211 -12 -328
-23 -380 -67 -318 -223 -589 -495 -860 -197 -197 -239 -226 -281 -192 -40 32
-30 69 31 120 92 77 282 273 345 357 118 155 206 324 254 483 37 125 50 253
50 492 1 144 6 252 14 300 43 238 207 462 436 594 153 89 290 110 440 69z
m-55 -259 c176 -45 299 -195 348 -422 41 -190 24 -556 -39 -855 -79 -376 -262
-817 -508 -1227 -46 -77 -54 -85 -84 -88 -82 -8 -82 46 1 186 290 489 463 966
518 1427 18 153 16 444 -4 534 -33 149 -100 252 -199 307 -47 26 -62 29 -138
29 -74 0 -94 -5 -152 -32 -37 -17 -87 -52 -113 -78 -88 -88 -110 -175 -119
-480 -9 -265 -57 -539 -135 -770 -39 -116 -70 -144 -119 -109 -29 20 -28 52 3
145 84 243 134 556 135 834 1 253 59 402 195 503 134 100 273 132 410 96z
m-207 -360 c19 -13 22 -24 22 -92 0 -42 -7 -140 -15 -217 -66 -626 -265 -1171
-582 -1597 -103 -138 -239 -278 -270 -278 -42 0 -63 18 -63 53 0 27 11 44 61
92 282 277 532 759 653 1255 48 202 96 538 96 686 0 94 43 137 98 98z m289
-299 c31 -22 35 -57 23 -216 -28 -376 -124 -703 -318 -1083 -85 -167 -128
-222 -164 -211 -28 9 -48 32 -48 58 0 10 17 49 39 85 149 258 284 610 334 877
28 145 29 159 36 314 6 145 8 154 30 172 28 23 40 24 68 4z m508 -299 c14 -21
14 -34 0 -132 -89 -606 -273 -1125 -512 -1452 -30 -40 -62 -81 -73 -92 -38
-38 -102 -17 -102 34 0 16 16 48 44 84 163 207 309 525 407 887 47 172 92 388
116 555 9 63 21 121 27 128 18 22 76 15 93 -12z m841 -651 c15 -23 15 -33 -10
-157 -35 -173 -92 -342 -161 -478 -69 -134 -89 -160 -122 -160 -31 0 -63 26
-63 50 0 10 29 73 64 141 76 147 137 321 167 483 12 65 29 124 36 132 24 23
70 17 89 -11z m-2187 -142 c14 -17 19 -33 15 -46 -7 -22 -71 -123 -125 -198
-123 -170 -364 -399 -419 -399 -35 0 -65 38 -55 69 3 11 47 55 96 98 117 101
233 232 321 363 38 58 77 113 86 123 22 25 57 21 81 -10z m306 -557 c12 -17
13 -29 6 -47 -20 -47 -207 -313 -234 -333 -26 -19 -30 -19 -55 -5 -49 27 -42
57 49 192 145 216 146 217 185 217 24 0 38 -6 49 -24z m3305 -771 l0 -575
-580 0 -580 0 0 170 0 170 410 0 410 0 0 405 0 405 170 0 170 0 0 -575z
m-5660 155 l0 -390 410 0 410 0 0 -170 0 -170 -580 0 -580 0 0 560 0 560 170
0 170 0 0 -390z m-932 -1607 c42 -20 81 -71 89 -117 l6 -36 -45 0 c-40 0 -46
3 -60 33 -29 60 -120 74 -164 26 -17 -18 -19 -41 -22 -176 -4 -171 -1 -194 28
-223 44 -44 149 -15 164 45 6 22 12 25 51 25 42 0 45 -2 45 -25 0 -34 -21 -74
-57 -106 -84 -78 -239 -60 -301 34 -26 39 -27 46 -30 202 -4 184 4 230 51 282
55 60 160 75 245 36z m4713 1 c30 -15 89 -79 89 -97 0 -7 3 -22 6 -34 6 -22 3
-23 -42 -23 -45 0 -50 3 -64 33 -28 60 -115 74 -160 25 -18 -20 -20 -36 -20
-195 0 -171 0 -174 25 -198 18 -19 35 -25 65 -25 54 0 79 14 96 56 13 32 18
34 59 34 52 0 56 -10 26 -75 -22 -48 -44 -69 -94 -90 -100 -42 -232 6 -266 98
-6 16 -11 104 -11 205 0 165 2 180 23 216 46 83 176 116 268 70z m-5981 -29
l0 -45 -65 0 -65 0 0 -220 0 -220 65 0 65 0 0 -40 0 -40 -180 0 -180 0 0 40 0
40 65 0 65 0 0 220 0 220 -65 0 -65 0 0 45 0 45 180 0 180 0 0 -45z m467 -80
c25 -66 64 -174 87 -240 l41 -120 0 240 0 240 43 3 42 3 0 -305 0 -306 -58 0
-59 0 -58 158 c-32 86 -71 193 -87 237 l-28 80 0 -237 0 -238 -45 0 -45 0 0
305 0 306 61 -3 61 -3 45 -120z m1553 80 l0 -45 -65 0 -65 0 0 -220 0 -220 65
0 65 0 0 -40 0 -40 -180 0 -180 0 0 40 0 40 65 0 65 0 0 220 0 220 -65 0 -65
0 0 45 0 45 180 0 180 0 0 -45z m557 30 c59 -18 106 -64 123 -123 8 -24 11
-96 8 -193 -3 -149 -4 -157 -30 -196 -44 -66 -91 -83 -236 -83 l-122 0 0 298
c0 164 3 302 7 305 13 13 199 7 250 -8z m803 -30 l0 -45 -135 0 -135 0 0 -85
0 -85 120 0 120 0 0 -40 0 -40 -120 0 -120 0 0 -95 0 -95 135 0 135 0 0 -40 0
-40 -185 0 -185 0 0 305 0 305 185 0 185 0 0 -45z m488 -172 c45 -120 84 -233
89 -251 4 -18 7 77 5 218 l-4 250 46 0 46 0 0 -305 0 -305 -59 0 c-47 0 -60 4
-66 18 -40 101 -141 379 -154 423 -16 55 -16 51 -13 -192 l4 -249 -46 0 -46 0
0 305 0 305 59 0 59 0 80 -217z m882 172 l0 -45 -85 0 -85 0 0 -260 0 -260
-50 0 -50 0 0 260 0 260 -85 0 -85 0 0 38 c0 21 3 42 7 45 3 4 102 7 220 7
l213 0 0 -45z m1730 -215 l0 -259 138 -3 137 -3 3 -42 3 -43 -185 0 -186 0 0
305 0 305 45 0 45 0 0 -260z m892 -35 c42 -159 77 -296 77 -302 1 -9 -15 -13
-49 -13 l-49 0 -17 80 -17 80 -88 0 -88 0 -10 -37 c-5 -21 -15 -57 -21 -80
l-11 -43 -50 0 c-43 0 -50 2 -45 18 3 9 40 143 82 297 42 154 78 284 81 288 3
4 32 7 66 5 l62 -3 77 -290z m603 284 c83 -23 134 -89 135 -173 0 -55 -36
-124 -76 -148 -19 -11 -34 -22 -34 -25 0 -3 27 -61 60 -129 l59 -125 -56 3
-56 3 -52 115 -53 115 -46 3 -46 3 0 -120 0 -121 -45 0 -45 0 0 305 0 305 108
0 c59 0 125 -5 147 -11z m780 -34 l0 -40 -67 -3 -68 -3 0 -219 0 -220 70 0 70
0 0 -40 0 -40 -185 0 -185 0 0 40 0 40 65 0 65 0 0 220 0 219 -62 3 c-61 3
-63 4 -66 31 -7 58 -8 58 185 55 l178 -3 0 -40z m715 0 l0 -45 -85 0 -85 0 0
-260 0 -260 -50 0 -50 0 0 260 0 260 -85 0 -85 0 0 45 0 45 220 0 220 0 0 -45z
m367 -60 c25 -55 56 -127 69 -160 12 -33 23 -52 24 -42 0 11 28 84 62 163 l62
144 48 0 c26 0 48 -4 48 -9 0 -4 -40 -95 -90 -200 l-90 -193 0 -104 0 -104
-50 0 -50 0 0 109 0 108 -90 192 c-49 106 -90 195 -90 197 0 3 23 4 51 2 l50
-3 46 -100z m-549 -1042 c-3 -17 -221 -18 -4418 -18 -4197 0 -4415 1 -4418 18
-3 16 212 17 4418 17 4206 0 4421 -1 4418 -17z m-7375 -435 c27 -20 7 -39 -30
-29 -42 12 -77 3 -105 -26 -19 -20 -23 -36 -23 -85 0 -54 3 -62 29 -85 26 -22
37 -25 83 -21 45 4 53 2 51 -11 -5 -23 -68 -34 -116 -21 -56 14 -85 57 -90
129 -4 69 19 118 69 143 40 21 108 23 132 6z m279 2 c63 -18 80 -90 32 -135
-24 -23 -25 -27 -12 -47 8 -13 24 -40 37 -60 l23 -38 -24 0 c-18 0 -30 14 -56
61 -29 53 -37 60 -60 57 -25 -3 -27 -6 -30 -60 -2 -43 -7 -58 -17 -58 -13 0
-15 25 -15 145 l0 145 43 0 c23 0 59 -5 79 -10z m368 -122 c29 -73 54 -139 57
-145 3 -8 -3 -13 -15 -13 -15 0 -25 12 -38 45 l-17 46 -56 -3 -56 -3 -15 -42
c-10 -29 -20 -43 -32 -43 -10 0 -18 4 -18 8 0 4 21 59 46 122 25 63 50 125 55
138 18 47 37 23 89 -110z m350 112 c0 -18 -7 -20 -66 -20 l-65 0 3 -47 3 -48
58 -3 c42 -2 57 -7 57 -17 0 -12 -14 -15 -60 -15 l-60 0 0 -60 c0 -47 -3 -60
-15 -60 -13 0 -15 23 -15 145 l0 145 80 0 c73 0 80 -2 80 -20z m315 0 c0 -10
-13 -16 -42 -18 l-43 -3 0 -125 c0 -117 -1 -124 -20 -124 -19 0 -20 7 -20 125
l0 125 -45 0 c-39 0 -45 3 -45 20 0 20 5 21 108 18 87 -2 107 -6 107 -18z
m165 -125 c0 -122 -2 -145 -15 -145 -13 0 -15 23 -15 145 0 122 2 145 15 145
13 0 15 -23 15 -145z m282 27 l78 -117 0 118 c0 97 3 117 15 117 13 0 15 -23
15 -145 0 -139 -1 -145 -20 -145 -15 0 -40 30 -93 112 l-72 113 -3 -113 c-2
-90 -5 -112 -17 -112 -13 0 -15 24 -15 145 0 187 6 188 112 27z m488 102 c20
-20 -5 -33 -43 -24 -50 11 -103 -4 -123 -36 -19 -28 -22 -111 -5 -143 15 -28
50 -41 107 -41 l44 0 0 45 c0 45 0 45 -35 45 -24 0 -35 5 -35 15 0 12 13 15
55 15 l55 0 0 -70 c0 -67 -1 -70 -27 -77 -54 -15 -131 -8 -160 13 -83 62 -73
210 17 257 37 19 131 20 150 1z m520 -116 c29 -73 54 -139 57 -145 3 -8 -3
-13 -15 -13 -15 0 -25 12 -38 45 l-17 46 -56 -3 -56 -3 -15 -42 c-10 -29 -20
-43 -32 -43 -10 0 -18 4 -18 8 0 4 21 59 46 122 25 63 50 125 55 138 18 47 37
23 89 -110z m535 120 c3 -3 3 -12 0 -20 -5 -12 -14 -14 -42 -8 -52 12 -85 -3
-81 -38 2 -22 14 -33 62 -57 42 -21 63 -38 68 -56 22 -67 -46 -119 -132 -103
-30 6 -46 15 -48 26 -3 16 2 17 42 12 58 -8 93 1 101 27 9 27 -9 46 -67 71
-54 23 -68 41 -68 87 0 47 42 74 107 69 29 -3 55 -7 58 -10z m195 -48 l0 -60
70 0 69 0 3 57 c2 46 7 59 21 61 16 3 17 -9 17 -142 0 -139 -1 -146 -20 -146
-18 0 -20 7 -20 65 l0 65 -70 0 -70 0 0 -65 c0 -58 -2 -65 -20 -65 -19 0 -20
7 -20 138 0 76 3 142 7 145 3 4 12 7 20 7 9 0 13 -17 13 -60z m380 -85 c0
-122 -2 -145 -15 -145 -13 0 -15 23 -15 145 0 122 2 145 15 145 13 0 15 -23
15 -145z m330 125 c0 -18 -7 -20 -60 -20 l-60 0 0 -40 0 -40 55 0 c48 0 55 -2
55 -20 0 -18 -7 -20 -55 -20 l-55 0 0 -50 0 -50 60 0 c47 0 60 -3 60 -15 0
-12 -16 -15 -80 -15 l-80 0 0 145 0 145 80 0 c73 0 80 -2 80 -20z m190 -110
l0 -130 60 0 c47 0 60 -3 60 -15 0 -12 -16 -15 -80 -15 l-80 0 0 138 c0 76 3
142 7 145 3 4 12 7 20 7 10 0 13 -28 13 -130z m428 104 c82 -48 82 -194 0
-244 -24 -15 -50 -20 -100 -20 l-68 0 0 146 0 147 69 -5 c40 -3 81 -13 99 -24z
m570 4 c3 -16 -5 -18 -62 -18 l-66 0 0 -50 0 -50 60 0 c47 0 60 -3 60 -15 0
-12 -13 -15 -60 -15 l-60 0 0 -60 c0 -53 -2 -60 -20 -60 -19 0 -20 7 -20 138
0 76 3 142 7 146 4 4 41 5 82 4 63 -3 76 -6 79 -20z m312 9 c69 -35 94 -158
47 -228 -49 -73 -165 -73 -215 1 -20 30 -23 44 -20 102 4 70 26 109 73 128 30
13 87 11 115 -3z m355 -2 c59 -24 69 -95 20 -133 l-23 -18 34 -55 c39 -63 40
-69 15 -69 -12 0 -30 20 -53 58 -26 44 -40 58 -61 60 -27 3 -27 3 -27 -57 0
-54 -2 -61 -20 -61 -19 0 -20 7 -20 138 0 76 3 142 7 145 12 12 93 7 128 -8z
m-5907 -487 c3 -15 -4 -18 -42 -18 l-46 0 0 -125 c0 -118 -1 -125 -20 -125
-19 0 -20 7 -20 125 l0 125 -45 0 c-39 0 -45 3 -45 20 0 20 5 21 107 18 93 -3
108 -5 111 -20z m170 -41 l3 -57 69 0 69 0 3 57 c2 46 7 59 21 61 16 3 17 -9
17 -142 0 -139 -1 -146 -20 -146 -18 0 -20 7 -20 65 l0 65 -70 0 -70 0 0 -65
c0 -58 -2 -65 -20 -65 -19 0 -20 7 -20 146 0 133 1 145 18 142 13 -2 18 -15
20 -61z m502 43 c0 -18 -7 -20 -60 -20 l-60 0 0 -40 0 -39 57 -3 c46 -2 59 -7
61 -20 3 -16 -5 -18 -57 -18 l-61 0 0 -50 0 -50 60 0 c47 0 60 -3 60 -15 0
-12 -16 -15 -80 -15 l-80 0 0 138 c0 76 3 142 7 145 3 4 39 7 80 7 66 0 73 -2
73 -20z m518 -6 c82 -48 82 -194 0 -244 -24 -15 -50 -20 -100 -20 l-68 0 0
146 0 147 69 -5 c40 -3 81 -13 99 -24z m252 -119 c0 -138 -1 -145 -20 -145
-19 0 -20 7 -20 138 0 76 3 142 7 145 3 4 12 7 20 7 10 0 13 -31 13 -145z
m358 139 c25 -7 26 -42 1 -35 -8 1 -36 3 -63 3 -39 0 -53 -5 -75 -26 -22 -23
-26 -35 -26 -87 0 -54 3 -63 28 -85 22 -18 40 -24 78 -24 l49 0 0 45 c0 43 -1
45 -30 45 -20 0 -30 5 -30 15 0 11 12 15 50 15 l50 0 0 -69 c0 -40 -5 -73 -11
-77 -6 -3 -39 -7 -72 -7 -109 -3 -165 57 -155 163 10 96 101 152 206 124z
m222 -139 c0 -138 -1 -145 -20 -145 -19 0 -20 7 -20 138 0 76 3 142 7 145 3 4
12 7 20 7 10 0 13 -31 13 -145z m348 123 c3 -15 -4 -18 -42 -18 l-46 0 0 -125
c0 -118 -1 -125 -20 -125 -19 0 -20 7 -20 125 l0 125 -45 0 c-39 0 -45 3 -45
20 0 20 5 21 107 18 93 -3 108 -5 111 -20z m283 -105 c65 -168 64 -163 41
-163 -15 0 -24 12 -34 43 l-15 42 -58 0 -58 0 -14 -42 c-11 -32 -20 -43 -35
-43 -15 0 -18 4 -13 18 79 208 108 273 122 270 10 -2 35 -51 64 -125z m229 -3
l0 -130 60 0 c47 0 60 -3 60 -15 0 -12 -16 -15 -80 -15 l-80 0 0 138 c0 76 3
142 7 145 3 4 12 7 20 7 10 0 13 -28 13 -130z m618 108 c3 -16 -5 -18 -62 -18
l-66 0 0 -50 0 -50 60 0 c47 0 60 -3 60 -15 0 -12 -13 -15 -60 -15 l-60 0 0
-60 c0 -53 -2 -60 -20 -60 -19 0 -20 7 -20 138 0 76 3 142 7 146 4 4 41 5 82
4 63 -3 76 -6 79 -20z m320 2 c79 -48 81 -205 4 -256 -62 -41 -159 -14 -191
51 -19 39 -17 123 3 163 31 59 122 80 184 42z m347 5 c59 -24 69 -95 20 -133
l-23 -18 34 -55 c39 -63 40 -69 15 -69 -12 0 -30 20 -53 58 -26 44 -40 58 -61
60 -27 3 -27 3 -27 -57 0 -54 -2 -61 -20 -61 -19 0 -20 7 -20 138 0 76 3 142
7 145 12 12 93 7 128 -8z m383 -7 c3 -15 -4 -18 -42 -18 l-46 0 0 -125 c0
-118 -1 -125 -20 -125 -19 0 -20 7 -20 125 l0 125 -45 0 c-39 0 -45 3 -45 20
0 20 5 21 107 18 93 -3 108 -5 111 -20z m254 12 c63 -18 80 -89 33 -136 l-25
-25 24 -37 c46 -74 49 -82 27 -82 -13 0 -31 19 -56 60 -28 47 -42 60 -61 60
-23 0 -24 -3 -24 -60 0 -53 -2 -60 -20 -60 -19 0 -20 7 -20 145 l0 145 43 0
c23 0 59 -5 79 -10z m378 -10 c0 -18 -7 -20 -65 -20 l-65 0 0 -40 0 -40 60 0
c53 0 60 -2 60 -20 0 -18 -7 -20 -60 -20 l-60 0 0 -50 0 -50 65 0 c51 0 65 -3
65 -15 0 -12 -16 -15 -80 -15 l-80 0 0 145 0 145 80 0 c73 0 80 -2 80 -20z
m278 14 c13 -4 22 -14 22 -26 0 -14 -5 -18 -17 -14 -57 17 -70 16 -92 -2 -34
-27 -21 -57 34 -77 24 -10 53 -26 64 -36 28 -26 28 -82 0 -108 -40 -37 -150
-36 -157 2 -3 14 3 16 42 11 57 -8 92 1 98 24 8 30 -8 49 -67 76 -64 29 -83
62 -65 107 18 42 75 60 138 43z m310 0 c13 -4 22 -14 22 -26 0 -14 -5 -18 -17
-14 -57 17 -70 16 -92 -2 -34 -27 -21 -57 34 -77 24 -10 53 -26 64 -36 28 -26
28 -82 0 -108 -40 -37 -150 -36 -157 2 -3 14 3 16 42 11 57 -8 92 1 98 24 8
30 -8 49 -67 76 -64 29 -83 62 -65 107 18 42 75 60 138 43z"/>
<path d="M5050 4975 l0 -215 66 0 c59 0 68 3 95 29 l29 29 0 147 c0 165 -9
196 -61 214 -18 6 -54 11 -80 11 l-49 0 0 -215z"/>
<path d="M9851 5182 c-1 -13 -14 -77 -31 -142 -16 -65 -30 -121 -30 -124 0 -3
29 -6 65 -6 46 0 65 4 65 13 -2 28 -68 280 -69 259z"/>
<path d="M10440 5095 l0 -95 75 0 c67 0 79 3 100 25 39 38 31 117 -14 152 -9
7 -47 13 -88 13 l-73 0 0 -95z"/>
<path d="M4730 3620 l0 -50 36 0 c50 0 74 15 74 48 0 39 -17 52 -67 52 l-43 0
0 -50z"/>
<path d="M5103 3600 l-21 -55 35 -3 c19 -2 37 -1 40 2 3 3 -3 29 -14 58 l-20
52 -20 -54z"/>
<path d="M7223 3600 l-21 -55 35 -3 c19 -2 37 -1 40 2 3 3 -3 29 -14 58 l-20
52 -20 -54z"/>
<path d="M9240 3560 l0 -110 29 0 c78 0 121 42 121 120 0 60 -41 100 -104 100
l-46 0 0 -110z"/>
<path d="M10163 3673 c-13 -3 -32 -16 -44 -31 -18 -23 -20 -37 -17 -91 5 -75
27 -101 88 -101 61 0 83 25 88 102 4 57 1 67 -19 90 -25 27 -58 38 -96 31z"/>
<path d="M10510 3620 l0 -50 38 0 c25 0 45 7 55 18 36 40 9 82 -54 82 l-39 0
0 -50z"/>
<path d="M5760 3080 l0 -110 29 0 c78 0 121 42 121 120 0 60 -41 100 -104 100
l-46 0 0 -110z"/>
<path d="M7263 3115 l-21 -55 44 0 44 0 -21 53 c-11 28 -22 53 -23 55 -2 1
-12 -22 -23 -53z"/>
<path d="M8413 3190 c-59 -24 -77 -147 -28 -195 31 -32 96 -34 124 -6 38 38
40 147 4 182 -23 21 -71 31 -100 19z"/>
<path d="M8770 3140 l0 -50 38 0 c25 0 45 7 55 18 36 40 9 82 -54 82 l-39 0 0
-50z"/>
<path d="M9420 3140 l0 -50 38 0 c45 0 62 14 62 50 0 36 -17 50 -62 50 l-38 0
0 -50z"/>
</g>
</svg>
